<svg width="920.3599853515625px" height="124.439990234375px" xmlns="http://www.w3.org/2000/svg" viewBox="-210.17999267578125 12.780004882812499 920.3599853515625 124.439990234375" style="background: rgb(252, 247, 247);" preserveAspectRatio="xMidYMid"><defs><linearGradient id="editing-outline-gradient" x1="-0.41354545764260087" x2="1.4135454576426008" y1="0.09326335692419985" y2="0.9067366430758002"><stop offset="0" stop-color="#1c1e20"></stop><stop offset="1" stop-color="#5c5454"></stop></linearGradient><filter id="editing-outline" x="-100%" y="-100%" width="300%" height="300%"><feMorphology in="SourceGraphic" operator="dilate" radius="1" result="outline"></feMorphology><feComposite operator="out" in="outline" in2="SourceAlpha"></feComposite></filter></defs><g filter="url(#editing-outline)"><g transform="translate(-78.8920545578003, 104.79000091552734)"><path d="M3.07-39.87L3.07-39.87L3.07-39.87Q6.08-43.39 11.07-43.39L11.07-43.39L11.07-43.39Q15.04-43.39 17.15-41.86L17.15-41.86L17.15-41.86Q19.26-40.26 20.67-36.35L20.67-36.35L23.36-28.74L33.02-42.18L41.66-42.18L25.98-21.38L30.02-9.98L30.02-9.98Q30.91-7.42 32.48-5.54L32.48-5.54L32.48-5.54Q34.05-3.65 35.46-3.33L35.46-3.33L35.46-3.33Q34.18-0.90 31.97 0.19L31.97 0.19L31.97 0.19Q29.76 1.28 26.53 1.28L26.53 1.28L26.53 1.28Q23.30 1.28 21.02-0.83L21.02-0.83L21.02-0.83Q18.75-2.94 17.02-7.68L17.02-7.68L15.17-12.80L5.50 0L-2.37 0L12.35-20.42L7.74-33.28L7.74-33.28Q6.72-36.10 5.70-37.54L5.70-37.54L5.70-37.54Q4.67-38.98 3.07-39.87ZM40.64-10.37L40.64-10.37L40.64-10.37Q38.59-11.84 38.59-14.66L38.59-14.66L38.59-14.66Q38.59-16.19 39.36-17.44L39.36-17.44L39.36-17.44Q40.13-18.69 41.66-18.88L41.66-18.88L54.27-18.88L54.27-18.88Q56.38-18.88 57.02-20.16L57.02-20.16L57.02-20.16Q58.05-19.58 58.50-18.37L58.50-18.37L58.50-18.37Q58.94-17.15 58.94-15.87L58.94-15.87L58.94-15.87Q58.94-14.59 57.95-13.34L57.95-13.34L57.95-13.34Q56.96-12.10 55.49-11.97L55.49-11.97L43.78-11.97L43.78-11.97Q42.43-11.97 41.79-11.55L41.79-11.55L41.79-11.55Q41.15-11.14 40.64-10.37ZM91.46 1.28L91.46 1.28L91.46 1.28Q83.26 1.28 82.50-10.37L82.50-10.37L71.49-10.37L71.49-10.37Q70.21-7.42 69.31-4.86L69.31-4.86L67.65 0L58.69 0L78.85-42.24L92.61-42.24L95.30-11.14L95.30-11.14Q95.94-4.42 98.50-2.43L98.50-2.43L98.50-2.43Q96.64 1.28 91.46 1.28ZM76.99-23.17L73.47-15.04L82.30-15.04L81.54-31.49L81.54-33.22L76.99-23.17ZM133.63-26.62L133.63-26.62L133.63-26.62Q133.63-23.94 131.39-22.27L131.39-22.27L131.39-22.27Q129.15-20.61 125.50-20.61L125.50-20.61L125.50-20.61Q123.97-20.61 123.07-21.06L123.07-21.06L123.07-21.06Q123.78-22.72 124-24.80L124-24.80L124-24.80Q124.22-26.88 124.22-27.46L124.22-27.46L124.22-27.46Q124.22-30.14 122.37-30.14L122.37-30.14L122.37-30.14Q121.09-30.14 119.65-28.54L119.65-28.54L119.65-28.54Q118.21-26.94 116.99-24.45L116.99-24.45L116.99-24.45Q114.30-18.69 114.30-12.86L114.30-12.86L114.30-12.86Q114.30-9.66 115.52-8.22L115.52-8.22L115.52-8.22Q116.74-6.78 119.42-6.78L119.42-6.78L119.42-6.78Q123.14-6.78 126.08-9.86L126.08-9.86L126.08-9.86Q126.91-10.82 127.36-11.90L127.36-11.90L127.36-11.90Q129.79-10.62 129.79-7.10L129.79-7.10L129.79-7.10Q129.79-3.52 125.82-1.15L125.82-1.15L125.82-1.15Q121.73 1.28 115.20 1.28L115.20 1.28L115.20 1.28Q102.21 1.28 102.21-12.48L102.21-12.48L102.21-12.48Q102.21-22.53 107.90-28.29L107.90-28.29L107.90-28.29Q113.41-33.92 123.52-33.92L123.52-33.92L123.52-33.92Q133.63-33.92 133.63-26.62ZM138.14-1.92L138.14-1.92L138.14-1.92Q136.64-3.58 135.97-6.21L135.97-6.21L135.97-6.21Q135.30-8.83 135.30-13.12L135.30-13.12L135.30-13.12Q135.30-17.41 136.77-21.31L136.77-21.31L136.77-21.31Q138.24-25.22 140.93-28.03L140.93-28.03L140.93-28.03Q146.43-33.92 155.52-33.92L155.52-33.92L155.52-33.92Q158.78-33.92 161.15-32.83L161.15-32.83L172.10-33.92L167.36-8.96L167.36-8.96Q167.17-8.19 167.17-6.78L167.17-6.78L167.17-6.78Q167.17-5.38 168.03-4.48L168.03-4.48L168.03-4.48Q168.90-3.58 170.18-3.46L170.18-3.46L170.18-3.46Q169.54-1.28 167.20 0L167.20 0L167.20 0Q164.86 1.28 162.24 1.28L162.24 1.28L162.24 1.28Q159.62 1.28 157.86 0.29L157.86 0.29L157.86 0.29Q156.10-0.70 155.58-2.37L155.58-2.37L155.58-2.37Q154.56-0.77 152.38 0.26L152.38 0.26L152.38 0.26Q150.21 1.28 147.30 1.28L147.30 1.28L147.30 1.28Q144.38 1.28 142.02 0.51L142.02 0.51L142.02 0.51Q139.65-0.26 138.14-1.92ZM151.65-27.90L151.65-27.90L151.65-27.90Q150.91-26.75 150.27-24.80L150.27-24.80L150.27-24.80Q149.63-22.85 148.58-17.63L148.58-17.63L148.58-17.63Q147.52-12.42 147.52-8.70L147.52-8.70L147.52-8.70Q147.52-4.99 148.10-3.90L148.10-3.90L148.10-3.90Q148.67-2.82 149.70-2.82L149.70-2.82L149.70-2.82Q151.74-2.82 153.25-4.77L153.25-4.77L153.25-4.77Q154.75-6.72 155.33-10.18L155.33-10.18L158.72-28.93L158.72-28.93Q157.38-30.08 155.81-30.08L155.81-30.08L155.81-30.08Q154.24-30.08 153.31-29.57L153.31-29.57L153.31-29.57Q152.38-29.06 151.65-27.90ZM195.46-33.92L195.46-33.92L195.46-33.92Q197.76-33.92 199.55-33.41L199.55-33.41L199.55-33.41Q199.62-33.66 199.74-34.37L199.74-34.37L200.06-36.35L200.06-36.35Q200.32-37.63 200.70-39.74L200.70-39.74L201.73-44.80L214.46-46.08L207.36-8.96L207.36-8.96Q207.30-8.58 207.30-7.94L207.30-7.94L207.30-6.91L207.30-6.91Q207.30-5.50 208-4.45L208-4.45L208-4.45Q208.70-3.39 209.86-3.39L209.86-3.39L209.86-3.39Q208.58-0.38 204.67 0.90L204.67 0.90L204.67 0.90Q203.33 1.28 201.44 1.28L201.44 1.28L201.44 1.28Q199.55 1.28 197.82 0.29L197.82 0.29L197.82 0.29Q196.10-0.70 195.58-2.37L195.58-2.37L195.58-2.37Q194.56-0.70 192.51 0.29L192.51 0.29L192.51 0.29Q190.46 1.28 187.49 1.28L187.49 1.28L187.49 1.28Q184.51 1.28 182.05 0.51L182.05 0.51L182.05 0.51Q179.58-0.26 178.05-1.92L178.05-1.92L178.05-1.92Q175.23-5.18 175.23-12.61L175.23-12.61L175.23-12.61Q175.23-22.21 180.86-28.03L180.86-28.03L180.86-28.03Q186.50-33.92 195.46-33.92ZM195.01-30.08L195.01-30.08L195.01-30.08Q192.64-30.08 191.36-27.52L191.36-27.52L191.36-27.52Q190.08-24.96 188.77-18.62L188.77-18.62L188.77-18.62Q187.46-12.29 187.46-6.59L187.46-6.59L187.46-6.59Q187.46-2.69 189.76-2.69L189.76-2.69L189.76-2.69Q191.81-2.69 193.25-4.74L193.25-4.74L193.25-4.74Q194.69-6.78 195.26-10.18L195.26-10.18L198.72-28.93L198.72-28.93Q197.38-30.08 195.01-30.08ZM241.22-10.82L241.22-10.82L241.22-10.82Q242.82-9.73 242.82-7.33L242.82-7.33L242.82-7.33Q242.82-4.93 241.60-3.39L241.60-3.39L241.60-3.39Q240.38-1.86 238.40-0.83L238.40-0.83L238.40-0.83Q234.30 1.28 229.89 1.28L229.89 1.28L229.89 1.28Q225.47 1.28 222.88 0.32L222.88 0.32L222.88 0.32Q220.29-0.64 218.56-2.43L218.56-2.43L218.56-2.43Q215.17-5.82 215.17-12.03L215.17-12.03L215.17-12.03Q215.17-21.70 220.42-27.58L220.42-27.58L220.42-27.58Q226.05-33.92 235.84-33.92L235.84-33.92L235.84-33.92Q241.92-33.92 244.93-31.36L244.93-31.36L244.93-31.36Q247.17-29.44 247.17-26.30L247.17-26.30L247.17-26.30Q247.17-15.04 227.71-15.04L227.71-15.04L227.71-15.04Q227.46-13.38 227.46-11.97L227.46-11.97L227.46-11.97Q227.46-9.02 228.77-7.90L228.77-7.90L228.77-7.90Q230.08-6.78 232.51-6.78L232.51-6.78L232.51-6.78Q234.94-6.78 237.54-7.90L237.54-7.90L237.54-7.90Q240.13-9.02 241.22-10.82ZM228.16-17.79L228.16-17.79L228.16-17.79Q232.70-17.79 235.33-20.61L235.33-20.61L235.33-20.61Q237.95-23.30 237.95-27.58L237.95-27.58L237.95-27.58Q237.95-29.06 237.41-29.86L237.41-29.86L237.41-29.86Q236.86-30.66 235.78-30.66L235.78-30.66L235.78-30.66Q234.69-30.66 233.76-30.24L233.76-30.24L233.76-30.24Q232.83-29.82 231.87-28.42L231.87-28.42L231.87-28.42Q229.50-25.22 228.16-17.79ZM295.42 1.28L295.42 1.28L295.42 1.28Q287.68 1.28 287.68-4.74L287.68-4.74L287.68-4.74Q287.68-7.36 288.80-12.45L288.80-12.45L288.80-12.45Q289.92-17.54 290.30-19.58L290.30-19.58L290.30-19.58Q291.20-24.26 291.20-25.73L291.20-25.73L291.20-25.73Q291.20-28.99 288.77-28.99L288.77-28.99L288.77-28.99Q287.17-28.99 285.63-26.78L285.63-26.78L285.63-26.78Q284.10-24.58 283.39-20.16L283.39-20.16L279.42 0L266.94 1.28L270.40-16.13L270.40-16.13Q270.98-19.01 271.49-22.27L271.49-22.27L271.49-22.27Q272-25.54 272-26.05L272-26.05L272-26.05Q272-28.99 269.82-28.99L269.82-28.99L269.82-28.99Q268.35-28.99 266.75-26.82L266.75-26.82L266.75-26.82Q265.15-24.64 264.26-20.16L264.26-20.16L260.35 0L247.74 1.28L254.46-32.64L264.90-33.92L263.81-27.46L263.81-27.46Q265.47-30.91 268.54-32.42L268.54-32.42L268.54-32.42Q271.62-33.92 276.42-33.92L276.42-33.92L276.42-33.92Q279.17-33.92 280.96-32.58L280.96-32.58L280.96-32.58Q282.75-31.23 283.33-29.06L283.33-29.06L283.33-29.06Q284.42-31.30 287.20-32.61L287.20-32.61L287.20-32.61Q289.98-33.92 293.41-33.92L293.41-33.92L293.41-33.92Q296.83-33.92 298.53-33.18L298.53-33.18L298.53-33.18Q300.22-32.45 301.25-31.23L301.25-31.23L301.25-31.23Q302.98-28.99 302.98-24.90L302.98-24.90L302.98-24.90Q302.98-20.86 301.25-12.48L301.25-12.48L301.25-12.48Q300.35-8.38 300.35-6.88L300.35-6.88L300.35-6.88Q300.35-5.38 301.22-4.48L301.22-4.48L301.22-4.48Q302.08-3.58 303.36-3.46L303.36-3.46L303.36-3.46Q302.72-1.28 300.51 0L300.51 0L300.51 0Q298.30 1.28 295.42 1.28ZM328.64-7.23L328.64-7.23L328.64-7.23Q325.31-3.78 319.23-3.78L319.23-3.78L319.23-3.78Q311.62-3.78 310.02-9.34L310.02-9.34L310.02-9.34Q309.50-11.01 309.50-12.86L309.50-12.86L309.50-12.86Q309.50-14.72 309.89-16.64L309.89-16.64L312.90-32.64L325.89-33.92L322.37-15.30L322.37-15.30Q322.24-14.46 322.05-13.57L322.05-13.57L322.05-13.57Q321.86-12.67 321.86-11.74L321.86-11.74L321.86-11.74Q321.86-10.82 322.18-10.21L322.18-10.21L322.18-10.21Q322.50-9.60 322.94-9.22L322.94-9.22L322.94-9.22Q323.71-8.70 325.09-8.70L325.09-8.70L325.09-8.70Q326.46-8.70 327.65-10.37L327.65-10.37L327.65-10.37Q328.83-12.03 329.41-14.91L329.41-14.91L332.93-32.64L345.54-33.92L340.74-8.77L340.74-8.77Q338.37 3.52 333.50 8.38L333.50 8.38L333.50 8.38Q331.01 10.88 327.78 11.87L327.78 11.87L327.78 11.87Q324.54 12.86 320.38 12.86L320.38 12.86L320.38 12.86Q313.66 12.86 309.82 10.75L309.82 10.75L309.82 10.75Q305.98 8.64 305.98 5.12L305.98 5.12L305.98 5.12Q305.98 2.50 307.97 0.99L307.97 0.99L307.97 0.99Q309.95-0.51 313.02-0.51L313.02-0.51L313.02-0.51Q315.71-0.51 317.76 0.64L317.76 0.64L317.76 0.64Q318.98 1.34 319.55 2.24L319.55 2.24L319.55 2.24Q318.08 3.52 318.08 5.63L318.08 5.63L318.08 5.63Q318.08 8.45 320.64 8.45L320.64 8.45L320.64 8.45Q324.86 8.45 327.30-1.28L327.30-1.28L327.30-1.28Q328-4.16 328.64-7.23ZM374.14 0L360.45 0L368.26-42.05L368.26-42.05Q374.59-42.75 383.84-42.75L383.84-42.75L383.84-42.75Q393.09-42.75 397.38-40.06L397.38-40.06L397.38-40.06Q401.66-37.38 401.66-31.97L401.66-31.97L401.66-31.97Q401.66-26.56 398.88-23.17L398.88-23.17L398.88-23.17Q396.10-19.78 391.30-18.69L391.30-18.69L391.30-18.69Q392.38-13.38 394.88-9.09L394.88-9.09L394.88-9.09Q397.18-5.06 399.87-3.78L399.87-3.78L399.87-3.78Q398.91-1.09 396.96 0.10L396.96 0.10L396.96 0.10Q395.01 1.28 392.22 1.28L392.22 1.28L392.22 1.28Q389.44 1.28 387.26-0.35L387.26-0.35L387.26-0.35Q385.09-1.98 383.36-4.99L383.36-4.99L383.36-4.99Q379.71-11.52 379.33-21.82L379.33-21.82L379.78-21.82L379.78-21.82Q384.51-21.95 386.88-24.42L386.88-24.42L386.88-24.42Q389.25-26.88 389.25-32.06L389.25-32.06L389.25-32.06Q389.25-38.53 383.81-38.78L383.81-38.78L382.40-38.78L382.40-38.78Q381.82-38.78 381.50-38.72L381.50-38.72L374.14 0ZM430.53-10.82L430.53-10.82L430.53-10.82Q432.13-9.73 432.13-7.33L432.13-7.33L432.13-7.33Q432.13-4.93 430.91-3.39L430.91-3.39L430.91-3.39Q429.70-1.86 427.71-0.83L427.71-0.83L427.71-0.83Q423.62 1.28 419.20 1.28L419.20 1.28L419.20 1.28Q414.78 1.28 412.19 0.32L412.19 0.32L412.19 0.32Q409.60-0.64 407.87-2.43L407.87-2.43L407.87-2.43Q404.48-5.82 404.48-12.03L404.48-12.03L404.48-12.03Q404.48-21.70 409.73-27.58L409.73-27.58L409.73-27.58Q415.36-33.92 425.15-33.92L425.15-33.92L425.15-33.92Q431.23-33.92 434.24-31.36L434.24-31.36L434.24-31.36Q436.48-29.44 436.48-26.30L436.48-26.30L436.48-26.30Q436.48-15.04 417.02-15.04L417.02-15.04L417.02-15.04Q416.77-13.38 416.77-11.97L416.77-11.97L416.77-11.97Q416.77-9.02 418.08-7.90L418.08-7.90L418.08-7.90Q419.39-6.78 421.82-6.78L421.82-6.78L421.82-6.78Q424.26-6.78 426.85-7.90L426.85-7.90L426.85-7.90Q429.44-9.02 430.53-10.82ZM417.47-17.79L417.47-17.79L417.47-17.79Q422.02-17.79 424.64-20.61L424.64-20.61L424.64-20.61Q427.26-23.30 427.26-27.58L427.26-27.58L427.26-27.58Q427.26-29.06 426.72-29.86L426.72-29.86L426.72-29.86Q426.18-30.66 425.09-30.66L425.09-30.66L425.09-30.66Q424.00-30.66 423.07-30.24L423.07-30.24L423.07-30.24Q422.14-29.82 421.18-28.42L421.18-28.42L421.18-28.42Q418.82-25.22 417.47-17.79ZM443.20-26.75L443.20-26.75L443.20-26.75Q445.38-29.82 448.67-31.87L448.67-31.87L448.67-31.87Q451.97-33.92 456.00-33.92L456.00-33.92L456.00-33.92Q460.03-33.92 461.95-32.64L461.95-32.64L474.50-33.92L470.14-9.34L470.14-9.34Q467.90 3.20 463.17 8.13L463.17 8.13L463.17 8.13Q458.62 12.80 449.79 12.80L449.79 12.80L449.79 12.80Q443.07 12.80 439.23 10.69L439.23 10.69L439.23 10.69Q435.39 8.58 435.39 5.06L435.39 5.06L435.39 5.06Q435.39 2.43 437.38 0.93L437.38 0.93L437.38 0.93Q439.36-0.58 442.43-0.58L442.43-0.58L442.43-0.58Q445.12-0.58 447.17 0.64L447.17 0.64L447.17 0.64Q448.38 1.28 448.96 2.18L448.96 2.18L448.96 2.18Q447.49 3.46 447.49 5.57L447.49 5.57L447.49 5.57Q447.49 8.32 450.05 8.32L450.05 8.32L450.05 8.32Q454.34 8.32 456.77-1.79L456.77-1.79L456.77-1.79Q457.47-4.54 458.05-7.30L458.05-7.30L458.05-7.30Q455.17-3.78 448.64-3.78L448.64-3.78L448.64-3.78Q444.10-3.78 441.47-5.95L441.47-5.95L441.47-5.95Q438.85-8.13 438.85-13.25L438.85-13.25L438.85-13.25Q438.85-16.45 439.94-20.06L439.94-20.06L439.94-20.06Q441.02-23.68 443.20-26.75ZM451.52-13.06L451.52-13.06L451.52-13.06Q451.52-8.70 453.76-8.70L453.76-8.70L453.76-8.70Q455.30-8.70 456.77-10.37L456.77-10.37L456.77-10.37Q457.92-11.71 458.37-13.70L458.37-13.70L461.63-30.14L461.63-30.14Q461.31-30.21 460.99-30.34L460.99-30.34L460.99-30.34Q460.35-30.59 459.52-30.59L459.52-30.59L459.52-30.59Q455.62-30.59 453.31-24.19L453.31-24.19L453.31-24.19Q451.52-19.20 451.52-13.06ZM492.35-3.52L492.35-3.52L492.35-3.52Q490.37 1.28 484.03 1.28L484.03 1.28L484.03 1.28Q480.77 1.28 478.72-0.96L478.72-0.96L478.72-0.96Q476.99-2.94 476.99-4.93L476.99-4.93L476.99-4.93Q476.99-10.11 479.36-20.22L479.36-20.22L481.73-32.64L494.72-33.92L490.82-13.70L490.82-13.70Q489.73-8.96 489.73-7.30L489.73-7.30L489.73-7.30Q489.73-3.65 492.35-3.52ZM482.88-41.54L482.88-41.54L482.88-41.54Q482.88-44.03 484.96-45.38L484.96-45.38L484.96-45.38Q487.04-46.72 490.05-46.72L490.05-46.72L490.05-46.72Q493.06-46.72 494.88-45.38L494.88-45.38L494.88-45.38Q496.70-44.03 496.70-41.54L496.70-41.54L496.70-41.54Q496.70-39.04 494.69-37.76L494.69-37.76L494.69-37.76Q492.67-36.48 489.66-36.48L489.66-36.48L489.66-36.48Q486.66-36.48 484.77-37.76L484.77-37.76L484.77-37.76Q482.88-39.04 482.88-41.54ZM516.93-22.46L516.93-22.46L516.93-22.46Q517.82-24.83 517.82-26.88L517.82-26.88L517.82-26.88Q517.82-30.66 514.75-30.66L514.75-30.66L514.75-30.66Q513.15-30.66 511.84-29.22L511.84-29.22L511.84-29.22Q510.53-27.78 510.53-25.98L510.53-25.98L510.53-25.98Q510.53-24.70 511.55-23.68L511.55-23.68L511.55-23.68Q513.02-22.27 516.80-19.97L516.80-19.97L516.80-19.97Q520.58-17.66 522.02-15.78L522.02-15.78L522.02-15.78Q523.46-13.89 523.46-11.30L523.46-11.30L523.46-11.30Q523.46-8.70 522.21-6.34L522.21-6.34L522.21-6.34Q520.96-3.97 518.72-2.30L518.72-2.30L518.72-2.30Q513.92 1.28 506.24 1.28L506.24 1.28L506.24 1.28Q502.08 1.28 498.88-0.90L498.88-0.90L498.88-0.90Q495.68-3.01 495.68-5.50L495.68-5.50L495.68-5.50Q495.68-8 497.50-9.47L497.50-9.47L497.50-9.47Q499.33-10.94 502.02-10.94L502.02-10.94L502.02-10.94Q504.70-10.94 506.37-9.92L506.37-9.92L506.37-9.92Q505.54-7.81 505.54-6.40L505.54-6.40L505.54-6.40Q505.54-2.18 509.12-2.18L509.12-2.18L509.12-2.18Q510.66-2.18 511.68-3.14L511.68-3.14L511.68-3.14Q512.70-4.10 512.70-5.76L512.70-5.76L512.70-5.76Q512.70-9.02 507.20-12.48L507.20-12.48L507.20-12.48Q502.72-15.42 501.70-16.58L501.70-16.58L501.70-16.58Q499.97-18.62 499.97-21.18L499.97-21.18L499.97-21.18Q499.97-23.74 501.18-26.18L501.18-26.18L501.18-26.18Q502.40-28.61 504.64-30.34L504.64-30.34L504.64-30.34Q509.31-33.92 517.44-33.92L517.44-33.92L517.44-33.92Q521.60-33.92 524.06-32.26L524.06-32.26L524.06-32.26Q526.53-30.59 526.53-27.78L526.53-27.78L526.53-27.78Q526.53-24.96 524.83-23.36L524.83-23.36L524.83-23.36Q523.14-21.76 520.06-21.76L520.06-21.76L520.06-21.76Q517.95-21.76 516.93-22.46ZM529.92-6.40L529.92-6.40L529.92-6.40Q529.92-8.13 530.82-12.48L530.82-12.48L534.21-29.76L530.43-29.76L530.69-31.68L530.69-31.68Q538.37-33.98 545.79-39.62L545.79-39.62L548.86-39.62L547.33-32.64L552.32-32.64L551.74-29.76L546.82-29.76L543.55-12.48L543.55-12.48Q542.72-8.51 542.72-7.17L542.72-7.17L542.72-7.17Q542.72-4.10 545.41-3.46L545.41-3.46L545.41-3.46Q544.77-1.28 542.46 0L542.46 0L542.46 0Q540.16 1.28 536.90 1.28L536.90 1.28L536.90 1.28Q533.63 1.28 531.78-0.77L531.78-0.77L531.78-0.77Q529.92-2.82 529.92-6.40ZM572.03-17.98L572.03-17.98L572.03-17.98Q574.34-22.08 574.34-26.24L574.34-26.24L574.34-26.24Q574.34-28.99 572.35-28.99L572.35-28.99L572.35-28.99Q570.82-28.99 569.22-26.37L569.22-26.37L569.22-26.37Q567.55-23.74 567.04-20.35L567.04-20.35L563.71 0L550.46 1.28L556.99-32.64L567.55-33.92L566.40-27.46L566.40-27.46Q569.54-33.92 576.58-33.92L576.58-33.92L576.58-33.92Q580.29-33.92 582.30-32L582.30-32L582.30-32Q584.32-30.08 584.32-26.14L584.32-26.14L584.32-26.14Q584.32-22.21 581.73-19.71L581.73-19.71L581.73-19.71Q579.14-17.22 574.72-17.22L574.72-17.22L574.72-17.22Q572.80-17.22 572.03-17.98ZM588.13-1.92L588.13-1.92L588.13-1.92Q586.62-3.58 585.95-6.21L585.95-6.21L585.95-6.21Q585.28-8.83 585.28-13.12L585.28-13.12L585.28-13.12Q585.28-17.41 586.75-21.31L586.75-21.31L586.75-21.31Q588.22-25.22 590.91-28.03L590.91-28.03L590.91-28.03Q596.42-33.92 605.50-33.92L605.50-33.92L605.50-33.92Q608.77-33.92 611.14-32.83L611.14-32.83L622.08-33.92L617.34-8.96L617.34-8.96Q617.15-8.19 617.15-6.78L617.15-6.78L617.15-6.78Q617.15-5.38 618.02-4.48L618.02-4.48L618.02-4.48Q618.88-3.58 620.16-3.46L620.16-3.46L620.16-3.46Q619.52-1.28 617.18 0L617.18 0L617.18 0Q614.85 1.28 612.22 1.28L612.22 1.28L612.22 1.28Q609.60 1.28 607.84 0.29L607.84 0.29L607.84 0.29Q606.08-0.70 605.57-2.37L605.57-2.37L605.57-2.37Q604.54-0.77 602.37 0.26L602.37 0.26L602.37 0.26Q600.19 1.28 597.28 1.28L597.28 1.28L597.28 1.28Q594.37 1.28 592.00 0.51L592.00 0.51L592.00 0.51Q589.63-0.26 588.13-1.92ZM601.63-27.90L601.63-27.90L601.63-27.90Q600.90-26.75 600.26-24.80L600.26-24.80L600.26-24.80Q599.62-22.85 598.56-17.63L598.56-17.63L598.56-17.63Q597.50-12.42 597.50-8.70L597.50-8.70L597.50-8.70Q597.50-4.99 598.08-3.90L598.08-3.90L598.08-3.90Q598.66-2.82 599.68-2.82L599.68-2.82L599.68-2.82Q601.73-2.82 603.23-4.77L603.23-4.77L603.23-4.77Q604.74-6.72 605.31-10.18L605.31-10.18L608.70-28.93L608.70-28.93Q607.36-30.08 605.79-30.08L605.79-30.08L605.79-30.08Q604.22-30.08 603.30-29.57L603.30-29.57L603.30-29.57Q602.37-29.06 601.63-27.90ZM645.57-17.98L645.57-17.98L645.57-17.98Q647.87-22.08 647.87-26.24L647.87-26.24L647.87-26.24Q647.87-28.99 645.89-28.99L645.89-28.99L645.89-28.99Q644.35-28.99 642.75-26.37L642.75-26.37L642.75-26.37Q641.09-23.74 640.58-20.35L640.58-20.35L637.25 0L624.00 1.28L630.53-32.64L641.09-33.92L639.94-27.46L639.94-27.46Q643.07-33.92 650.11-33.92L650.11-33.92L650.11-33.92Q653.82-33.92 655.84-32L655.84-32L655.84-32Q657.86-30.08 657.86-26.14L657.86-26.14L657.86-26.14Q657.86-22.21 655.26-19.71L655.26-19.71L655.26-19.71Q652.67-17.22 648.26-17.22L648.26-17.22L648.26-17.22Q646.34-17.22 645.57-17.98Z" fill="url(#editing-outline-gradient)"></path></g></g><style>text {
  font-size: 64px;
  font-family: Arial Black;
  dominant-baseline: central;
  text-anchor: middle;
}</style></svg>