<svg width="782.8800048828125px" height="124.439990234375px" xmlns="http://www.w3.org/2000/svg" viewBox="-141.44000244140625 12.780004882812499 782.8800048828125 124.439990234375" style="background: rgb(0, 158, 247);" preserveAspectRatio="xMidYMid"><filter id="editing-goldstamp"><feFlood flood-color="#009ef7" result="flood"></feFlood><feMorphology operator="dilate" radius="2" in="SourceGraphic" result="outline"></feMorphology><feComposite operator="in" in="flood" in2="outline" result="outline2"></feComposite><feGaussianBlur stdDeviation="4" in="SourceAlpha" result="blur"></feGaussianBlur><feSpecularLighting surfaceScale="2" specularConstant="0.7" specularExponent="10" lighting-color="#white" in="blur" result="specular"><fePointLight x="200" y="-1000" z="300"></fePointLight></feSpecularLighting><feComposite operator="in" in="specular" in2="SourceGraphic" result="specular2"></feComposite><feComposite in="SourceGraphic" in2="specular2" operator="arithmetic" k1="3" k2="2" k3="1" k4="0" result="specular3"></feComposite><feMerge><feMergeNode in="outline2"></feMergeNode><feMergeNode in="specular3"></feMergeNode></feMerge></filter><g filter="url(#editing-goldstamp)"><g transform="translate(-29.16498839855194, 104.79000091552734)"><path d="M30.21-33.92L30.21-33.92L30.21-33.92Q25.02-33.92 21.25-35.65L21.25-35.65L19.20-25.28L31.55-25.28L31.55-25.28Q31.55-21.89 29.86-19.74L29.86-19.74L29.86-19.74Q28.16-17.60 25.09-17.60L25.09-17.60L25.09-17.60Q21.76-17.60 18.69-18.82L18.69-18.82L18.69-18.82Q18.05-19.07 17.98-19.14L17.98-19.14L14.34 0L0.38 0L8.51-42.24L37.06-42.24L37.06-42.24Q37.06-38.34 35.23-36.13L35.23-36.13L35.23-36.13Q33.41-33.92 30.21-33.92ZM48.96 1.28L48.96 1.28L48.96 1.28Q34.88 1.28 34.88-11.97L34.88-11.97L34.88-11.97Q34.88-21.38 40.06-27.46L40.06-27.46L40.06-27.46Q45.57-33.92 55.10-33.92L55.10-33.92L55.10-33.92Q62.02-33.92 65.54-30.72L65.54-30.72L65.54-30.72Q69.06-27.52 69.06-20.80L69.06-20.80L69.06-20.80Q69.06-10.56 63.55-4.61L63.55-4.61L63.55-4.61Q58.18 1.28 48.96 1.28ZM50.62-26.56L50.62-26.56L50.62-26.56Q49.86-24.83 49.25-22.24L49.25-22.24L49.25-22.24Q48.64-19.65 47.87-15.55L47.87-15.55L47.87-15.55Q47.10-11.46 47.10-6.40L47.10-6.40L47.10-6.40Q47.10-4.74 47.65-3.65L47.65-3.65L47.65-3.65Q48.19-2.56 49.66-2.56L49.66-2.56L49.66-2.56Q51.14-2.56 52.06-3.26L52.06-3.26L52.06-3.26Q52.99-3.97 53.70-5.63L53.70-5.63L53.70-5.63Q54.98-8.58 56-14.05L56-14.05L56-14.05Q57.02-19.52 57.12-21.89L57.12-21.89L57.12-21.89Q57.22-24.26 57.22-26.02L57.22-26.02L57.22-26.02Q57.22-27.78 56.70-28.93L56.70-28.93L56.70-28.93Q56.19-30.08 54.75-30.08L54.75-30.08L54.75-30.08Q53.31-30.08 52.35-29.18L52.35-29.18L52.35-29.18Q51.39-28.29 50.62-26.56ZM86.78 1.28L86.78 1.28L86.78 1.28Q72.70 1.28 72.70-11.97L72.70-11.97L72.70-11.97Q72.70-21.38 77.89-27.46L77.89-27.46L77.89-27.46Q83.39-33.92 92.93-33.92L92.93-33.92L92.93-33.92Q99.84-33.92 103.36-30.72L103.36-30.72L103.36-30.72Q106.88-27.52 106.88-20.80L106.88-20.80L106.88-20.80Q106.88-10.56 101.38-4.61L101.38-4.61L101.38-4.61Q96 1.28 86.78 1.28ZM88.45-26.56L88.45-26.56L88.45-26.56Q87.68-24.83 87.07-22.24L87.07-22.24L87.07-22.24Q86.46-19.65 85.70-15.55L85.70-15.55L85.70-15.55Q84.93-11.46 84.93-6.40L84.93-6.40L84.93-6.40Q84.93-4.74 85.47-3.65L85.47-3.65L85.47-3.65Q86.02-2.56 87.49-2.56L87.49-2.56L87.49-2.56Q88.96-2.56 89.89-3.26L89.89-3.26L89.89-3.26Q90.82-3.97 91.52-5.63L91.52-5.63L91.52-5.63Q92.80-8.58 93.82-14.05L93.82-14.05L93.82-14.05Q94.85-19.52 94.94-21.89L94.94-21.89L94.94-21.89Q95.04-24.26 95.04-26.02L95.04-26.02L95.04-26.02Q95.04-27.78 94.53-28.93L94.53-28.93L94.53-28.93Q94.02-30.08 92.58-30.08L92.58-30.08L92.58-30.08Q91.14-30.08 90.18-29.18L90.18-29.18L90.18-29.18Q89.22-28.29 88.45-26.56ZM110.02-0.32L110.02-0.32L118.08-42.24L118.08-42.24Q125.63-42.88 130.50-42.88L130.50-42.88L130.50-42.88Q135.36-42.88 138.50-42.46L138.50-42.46L138.50-42.46Q141.63-42.05 143.74-40.96L143.74-40.96L143.74-40.96Q147.97-38.91 147.97-33.28L147.97-33.28L147.97-33.28Q147.97-30.02 145.15-27.26L145.15-27.26L145.15-27.26Q142.53-24.77 139.65-24.19L139.65-24.19L139.65-24.19Q142.72-23.68 144.90-21.38L144.90-21.38L144.90-21.38Q147.20-18.94 147.20-15.17L147.20-15.17L147.20-15.17Q147.20-7.87 141.76-3.62L141.76-3.62L141.76-3.62Q136.32 0.64 125.63 0.64L125.63 0.64L125.63 0.64Q118.27 0.64 110.02-0.32ZM127.42-20.61L124.22-4.03L124.22-4.03Q124.80-3.97 124.93-3.97L124.93-3.97L125.50-3.97L125.50-3.97Q130.75-3.97 132.99-7.42L132.99-7.42L132.99-7.42Q134.66-10.11 134.66-15.04L134.66-15.04L134.66-15.04Q134.66-17.66 132.96-19.07L132.96-19.07L132.96-19.07Q131.26-20.48 127.42-20.61L127.42-20.61ZM137.15-33.22L137.15-33.22L137.15-33.22Q137.15-38.53 132.03-38.53L132.03-38.53L131.46-38.53L131.46-38.53Q131.20-38.53 130.82-38.46L130.82-38.46L128.26-24.96L128.90-24.96L128.90-24.96Q137.15-25.15 137.15-33.22ZM154.21-1.92L154.21-1.92L154.21-1.92Q152.70-3.58 152.03-6.21L152.03-6.21L152.03-6.21Q151.36-8.83 151.36-13.12L151.36-13.12L151.36-13.12Q151.36-17.41 152.83-21.31L152.83-21.31L152.83-21.31Q154.30-25.22 156.99-28.03L156.99-28.03L156.99-28.03Q162.50-33.92 171.58-33.92L171.58-33.92L171.58-33.92Q174.85-33.92 177.22-32.83L177.22-32.83L188.16-33.92L183.42-8.96L183.42-8.96Q183.23-8.19 183.23-6.78L183.23-6.78L183.23-6.78Q183.23-5.38 184.10-4.48L184.10-4.48L184.10-4.48Q184.96-3.58 186.24-3.46L186.24-3.46L186.24-3.46Q185.60-1.28 183.26 0L183.26 0L183.26 0Q180.93 1.28 178.30 1.28L178.30 1.28L178.30 1.28Q175.68 1.28 173.92 0.29L173.92 0.29L173.92 0.29Q172.16-0.70 171.65-2.37L171.65-2.37L171.65-2.37Q170.62-0.77 168.45 0.26L168.45 0.26L168.45 0.26Q166.27 1.28 163.36 1.28L163.36 1.28L163.36 1.28Q160.45 1.28 158.08 0.51L158.08 0.51L158.08 0.51Q155.71-0.26 154.21-1.92ZM167.71-27.90L167.71-27.90L167.71-27.90Q166.98-26.75 166.34-24.80L166.34-24.80L166.34-24.80Q165.70-22.85 164.64-17.63L164.64-17.63L164.64-17.63Q163.58-12.42 163.58-8.70L163.58-8.70L163.58-8.70Q163.58-4.99 164.16-3.90L164.16-3.90L164.16-3.90Q164.74-2.82 165.76-2.82L165.76-2.82L165.76-2.82Q167.81-2.82 169.31-4.77L169.31-4.77L169.31-4.77Q170.82-6.72 171.39-10.18L171.39-10.18L174.78-28.93L174.78-28.93Q173.44-30.08 171.87-30.08L171.87-30.08L171.87-30.08Q170.30-30.08 169.38-29.57L169.38-29.57L169.38-29.57Q168.45-29.06 167.71-27.90ZM211.65-17.98L211.65-17.98L211.65-17.98Q213.95-22.08 213.95-26.24L213.95-26.24L213.95-26.24Q213.95-28.99 211.97-28.99L211.97-28.99L211.97-28.99Q210.43-28.99 208.83-26.37L208.83-26.37L208.83-26.37Q207.17-23.74 206.66-20.35L206.66-20.35L203.33 0L190.08 1.28L196.61-32.64L207.17-33.92L206.02-27.46L206.02-27.46Q209.15-33.92 216.19-33.92L216.19-33.92L216.19-33.92Q219.90-33.92 221.92-32L221.92-32L221.92-32Q223.94-30.08 223.94-26.14L223.94-26.14L223.94-26.14Q223.94-22.21 221.34-19.71L221.34-19.71L221.34-19.71Q218.75-17.22 214.34-17.22L214.34-17.22L214.34-17.22Q212.42-17.22 211.65-17.98ZM239.36-9.47L239.36-9.47L239.36-9.47Q239.36-11.97 240-15.17L240-15.17L245.18-42.24L259.33-42.24L254.21-14.98L254.21-14.98Q253.63-11.97 253.63-9.76L253.63-9.76L253.63-9.76Q253.63-7.55 254.56-6.40L254.56-6.40L254.56-6.40Q255.49-5.25 257.22-5.25L257.22-5.25L257.22-5.25Q258.94-5.25 260.03-5.70L260.03-5.70L260.03-5.70Q261.12-6.14 262.02-7.23L262.02-7.23L262.02-7.23Q263.74-9.41 264.83-14.98L264.83-14.98L270.02-42.24L279.68-42.24L274.56-15.04L274.56-15.04Q272.77-5.95 267.84-2.30L267.84-2.30L267.84-2.30Q263.04 1.28 253.57 1.28L253.57 1.28L253.57 1.28Q246.46 1.28 242.69-1.79L242.69-1.79L242.69-1.79Q239.36-4.48 239.36-9.47ZM308.03 1.28L308.03 1.28L308.03 1.28Q300.29 1.28 300.29-4.74L300.29-4.74L300.29-4.74Q300.35-6.40 300.86-9.22L300.86-9.22L302.02-15.10L302.02-15.10Q303.74-23.42 303.74-25.28L303.74-25.28L303.74-25.28Q303.74-28.99 301.57-28.99L301.57-28.99L301.57-28.99Q297.92-28.99 296-19.46L296-19.46L292.22 0L279.36 1.28L286.02-32.70L296.51-33.92L295.49-27.65L295.49-27.65Q298.50-33.92 307.71-33.92L307.71-33.92L307.71-33.92Q312.19-33.92 314.08-32.03L314.08-32.03L314.08-32.03Q315.97-30.14 315.97-25.92L315.97-25.92L315.97-25.92Q315.97-21.95 313.92-12.67L313.92-12.67L313.92-12.67Q312.96-8.51 312.96-6.94L312.96-6.94L312.96-6.94Q312.96-5.38 313.82-4.48L313.82-4.48L313.82-4.48Q314.69-3.58 315.97-3.46L315.97-3.46L315.97-3.46Q315.33-1.28 313.12 0L313.12 0L313.12 0Q310.91 1.28 308.03 1.28ZM336.45-3.52L336.45-3.52L336.45-3.52Q334.46 1.28 328.13 1.28L328.13 1.28L328.13 1.28Q324.86 1.28 322.82-0.96L322.82-0.96L322.82-0.96Q321.09-2.94 321.09-4.93L321.09-4.93L321.09-4.93Q321.09-10.11 323.46-20.22L323.46-20.22L325.82-32.64L338.82-33.92L334.91-13.70L334.91-13.70Q333.82-8.96 333.82-7.30L333.82-7.30L333.82-7.30Q333.82-3.65 336.45-3.52ZM326.98-41.54L326.98-41.54L326.98-41.54Q326.98-44.03 329.06-45.38L329.06-45.38L329.06-45.38Q331.14-46.72 334.14-46.72L334.14-46.72L334.14-46.72Q337.15-46.72 338.98-45.38L338.98-45.38L338.98-45.38Q340.80-44.03 340.80-41.54L340.80-41.54L340.80-41.54Q340.80-39.04 338.78-37.76L338.78-37.76L338.78-37.76Q336.77-36.48 333.76-36.48L333.76-36.48L333.76-36.48Q330.75-36.48 328.86-37.76L328.86-37.76L328.86-37.76Q326.98-39.04 326.98-41.54ZM365.12-31.55L365.12-31.55L365.12-31.55Q367.23-33.92 370.88-33.92L370.88-33.92L370.88-33.92Q373.12-33.92 374.85-32.70L374.85-32.70L374.85-32.70Q376.58-31.49 376.58-29.22L376.58-29.22L376.58-29.22Q376.58-26.94 375.87-24.51L375.87-24.51L375.87-24.51Q375.17-22.08 374.08-19.58L374.08-19.58L374.08-19.58Q371.90-14.72 368.90-10.69L368.90-10.69L368.90-10.69Q364.67-4.86 360.61-1.79L360.61-1.79L360.61-1.79Q356.54 1.28 352.13 1.28L352.13 1.28L352.13 1.28Q348.54 1.28 346.37 0.45L346.37 0.45L346.37 0.45Q345.98-12.99 345.50-17.79L345.50-17.79L345.50-17.79Q345.02-22.59 344.64-25.22L344.64-25.22L344.64-25.22Q344-30.34 342.08-31.55L342.08-31.55L342.08-31.55Q343.55-32.83 344.99-33.38L344.99-33.38L344.99-33.38Q346.43-33.92 349.41-33.92L349.41-33.92L349.41-33.92Q352.38-33.92 354.50-31.58L354.50-31.58L354.50-31.58Q356.61-29.25 357.02-25.12L357.02-25.12L357.02-25.12Q357.44-20.99 357.44-16L357.44-16L357.44-16Q357.44-11.01 357.06-4.99L357.06-4.99L357.06-4.99Q359.04-6.40 361.15-10.69L361.15-10.69L361.15-10.69Q364.03-16.64 365.06-23.81L365.06-23.81L365.06-23.81Q365.38-25.98 365.38-28.29L365.38-28.29L365.38-28.29Q365.38-30.59 365.12-31.55ZM404.22-10.82L404.22-10.82L404.22-10.82Q405.82-9.73 405.82-7.33L405.82-7.33L405.82-7.33Q405.82-4.93 404.61-3.39L404.61-3.39L404.61-3.39Q403.39-1.86 401.41-0.83L401.41-0.83L401.41-0.83Q397.31 1.28 392.90 1.28L392.90 1.28L392.90 1.28Q388.48 1.28 385.89 0.32L385.89 0.32L385.89 0.32Q383.30-0.64 381.57-2.43L381.57-2.43L381.57-2.43Q378.18-5.82 378.18-12.03L378.18-12.03L378.18-12.03Q378.18-21.70 383.42-27.58L383.42-27.58L383.42-27.58Q389.06-33.92 398.85-33.92L398.85-33.92L398.85-33.92Q404.93-33.92 407.94-31.36L407.94-31.36L407.94-31.36Q410.18-29.44 410.18-26.30L410.18-26.30L410.18-26.30Q410.18-15.04 390.72-15.04L390.72-15.04L390.72-15.04Q390.46-13.38 390.46-11.97L390.46-11.97L390.46-11.97Q390.46-9.02 391.78-7.90L391.78-7.90L391.78-7.90Q393.09-6.78 395.52-6.78L395.52-6.78L395.52-6.78Q397.95-6.78 400.54-7.90L400.54-7.90L400.54-7.90Q403.14-9.02 404.22-10.82ZM391.17-17.79L391.17-17.79L391.17-17.79Q395.71-17.79 398.34-20.61L398.34-20.61L398.34-20.61Q400.96-23.30 400.96-27.58L400.96-27.58L400.96-27.58Q400.96-29.06 400.42-29.86L400.42-29.86L400.42-29.86Q399.87-30.66 398.78-30.66L398.78-30.66L398.78-30.66Q397.70-30.66 396.77-30.24L396.77-30.24L396.77-30.24Q395.84-29.82 394.88-28.42L394.88-28.42L394.88-28.42Q392.51-25.22 391.17-17.79ZM432.38-17.98L432.38-17.98L432.38-17.98Q434.69-22.08 434.69-26.24L434.69-26.24L434.69-26.24Q434.69-28.99 432.70-28.99L432.70-28.99L432.70-28.99Q431.17-28.99 429.57-26.37L429.57-26.37L429.57-26.37Q427.90-23.74 427.39-20.35L427.39-20.35L424.06 0L410.82 1.28L417.34-32.64L427.90-33.92L426.75-27.46L426.75-27.46Q429.89-33.92 436.93-33.92L436.93-33.92L436.93-33.92Q440.64-33.92 442.66-32L442.66-32L442.66-32Q444.67-30.08 444.67-26.14L444.67-26.14L444.67-26.14Q444.67-22.21 442.08-19.71L442.08-19.71L442.08-19.71Q439.49-17.22 435.07-17.22L435.07-17.22L435.07-17.22Q433.15-17.22 432.38-17.98ZM464.83-22.46L464.83-22.46L464.83-22.46Q465.73-24.83 465.73-26.88L465.73-26.88L465.73-26.88Q465.73-30.66 462.66-30.66L462.66-30.66L462.66-30.66Q461.06-30.66 459.74-29.22L459.74-29.22L459.74-29.22Q458.43-27.78 458.43-25.98L458.43-25.98L458.43-25.98Q458.43-24.70 459.46-23.68L459.46-23.68L459.46-23.68Q460.93-22.27 464.70-19.97L464.70-19.97L464.70-19.97Q468.48-17.66 469.92-15.78L469.92-15.78L469.92-15.78Q471.36-13.89 471.36-11.30L471.36-11.30L471.36-11.30Q471.36-8.70 470.11-6.34L470.11-6.34L470.11-6.34Q468.86-3.97 466.62-2.30L466.62-2.30L466.62-2.30Q461.82 1.28 454.14 1.28L454.14 1.28L454.14 1.28Q449.98 1.28 446.78-0.90L446.78-0.90L446.78-0.90Q443.58-3.01 443.58-5.50L443.58-5.50L443.58-5.50Q443.58-8 445.41-9.47L445.41-9.47L445.41-9.47Q447.23-10.94 449.92-10.94L449.92-10.94L449.92-10.94Q452.61-10.94 454.27-9.92L454.27-9.92L454.27-9.92Q453.44-7.81 453.44-6.40L453.44-6.40L453.44-6.40Q453.44-2.18 457.02-2.18L457.02-2.18L457.02-2.18Q458.56-2.18 459.58-3.14L459.58-3.14L459.58-3.14Q460.61-4.10 460.61-5.76L460.61-5.76L460.61-5.76Q460.61-9.02 455.10-12.48L455.10-12.48L455.10-12.48Q450.62-15.42 449.60-16.58L449.60-16.58L449.60-16.58Q447.87-18.62 447.87-21.18L447.87-21.18L447.87-21.18Q447.87-23.74 449.09-26.18L449.09-26.18L449.09-26.18Q450.30-28.61 452.54-30.34L452.54-30.34L452.54-30.34Q457.22-33.92 465.34-33.92L465.34-33.92L465.34-33.92Q469.50-33.92 471.97-32.26L471.97-32.26L471.97-32.26Q474.43-30.59 474.43-27.78L474.43-27.78L474.43-27.78Q474.43-24.96 472.74-23.36L472.74-23.36L472.74-23.36Q471.04-21.76 467.97-21.76L467.97-21.76L467.97-21.76Q465.86-21.76 464.83-22.46ZM492.16-3.52L492.16-3.52L492.16-3.52Q490.18 1.28 483.84 1.28L483.84 1.28L483.84 1.28Q480.58 1.28 478.53-0.96L478.53-0.96L478.53-0.96Q476.80-2.94 476.80-4.93L476.80-4.93L476.80-4.93Q476.80-10.11 479.17-20.22L479.17-20.22L481.54-32.64L494.53-33.92L490.62-13.70L490.62-13.70Q489.54-8.96 489.54-7.30L489.54-7.30L489.54-7.30Q489.54-3.65 492.16-3.52ZM482.69-41.54L482.69-41.54L482.69-41.54Q482.69-44.03 484.77-45.38L484.77-45.38L484.77-45.38Q486.85-46.72 489.86-46.72L489.86-46.72L489.86-46.72Q492.86-46.72 494.69-45.38L494.69-45.38L494.69-45.38Q496.51-44.03 496.51-41.54L496.51-41.54L496.51-41.54Q496.51-39.04 494.50-37.76L494.50-37.76L494.50-37.76Q492.48-36.48 489.47-36.48L489.47-36.48L489.47-36.48Q486.46-36.48 484.58-37.76L484.58-37.76L484.58-37.76Q482.69-39.04 482.69-41.54ZM498.62-6.40L498.62-6.40L498.62-6.40Q498.62-8.13 499.52-12.48L499.52-12.48L502.91-29.76L499.14-29.76L499.39-31.68L499.39-31.68Q507.07-33.98 514.50-39.62L514.50-39.62L517.57-39.62L516.03-32.64L521.02-32.64L520.45-29.76L515.52-29.76L512.26-12.48L512.26-12.48Q511.42-8.51 511.42-7.17L511.42-7.17L511.42-7.17Q511.42-4.10 514.11-3.46L514.11-3.46L514.11-3.46Q513.47-1.28 511.17 0L511.17 0L511.17 0Q508.86 1.28 505.60 1.28L505.60 1.28L505.60 1.28Q502.34 1.28 500.48-0.77L500.48-0.77L500.48-0.77Q498.62-2.82 498.62-6.40ZM541.06-7.23L541.06-7.23L541.06-7.23Q537.73-3.78 531.65-3.78L531.65-3.78L531.65-3.78Q524.03-3.78 522.43-9.34L522.43-9.34L522.43-9.34Q521.92-11.01 521.92-12.86L521.92-12.86L521.92-12.86Q521.92-14.72 522.30-16.64L522.30-16.64L525.31-32.64L538.30-33.92L534.78-15.30L534.78-15.30Q534.66-14.46 534.46-13.57L534.46-13.57L534.46-13.57Q534.27-12.67 534.27-11.74L534.27-11.74L534.27-11.74Q534.27-10.82 534.59-10.21L534.59-10.21L534.59-10.21Q534.91-9.60 535.36-9.22L535.36-9.22L535.36-9.22Q536.13-8.70 537.50-8.70L537.50-8.70L537.50-8.70Q538.88-8.70 540.06-10.37L540.06-10.37L540.06-10.37Q541.25-12.03 541.82-14.91L541.82-14.91L545.34-32.64L557.95-33.92L553.15-8.77L553.15-8.77Q550.78 3.52 545.92 8.38L545.92 8.38L545.92 8.38Q543.42 10.88 540.19 11.87L540.19 11.87L540.19 11.87Q536.96 12.86 532.80 12.86L532.80 12.86L532.80 12.86Q526.08 12.86 522.24 10.75L522.24 10.75L522.24 10.75Q518.40 8.64 518.40 5.12L518.40 5.12L518.40 5.12Q518.40 2.50 520.38 0.99L520.38 0.99L520.38 0.99Q522.37-0.51 525.44-0.51L525.44-0.51L525.44-0.51Q528.13-0.51 530.18 0.64L530.18 0.64L530.18 0.64Q531.39 1.34 531.97 2.24L531.97 2.24L531.97 2.24Q530.50 3.52 530.50 5.63L530.50 5.63L530.50 5.63Q530.50 8.45 533.06 8.45L533.06 8.45L533.06 8.45Q537.28 8.45 539.71-1.28L539.71-1.28L539.71-1.28Q540.42-4.16 541.06-7.23Z" fill="#ffffff"></path></g></g><style>text {
  font-size: 64px;
  font-family: Arial Black;
  dominant-baseline: central;
  text-anchor: middle;
}</style></svg>